<mxfile host="app.diagrams.net" agent="Mozilla/5.0 (X11; Linux x86_64; rv:131.0) Gecko/20100101 Firefox/131.0" version="24.8.1">
  <diagram name="Page-1" id="L4WhBjqNJOePCvHCVizW">
    <mxGraphModel dx="610" dy="755" grid="1" gridSize="10" guides="1" tooltips="1" connect="1" arrows="1" fold="1" page="1" pageScale="1" pageWidth="850" pageHeight="1100" math="0" shadow="0">
      <root>
        <mxCell id="0" />
        <mxCell id="1" parent="0" />
        <mxCell id="iJGAhcAUCCFyRaBzRZ-4-8" style="edgeStyle=orthogonalEdgeStyle;rounded=0;orthogonalLoop=1;jettySize=auto;html=1;entryX=0.5;entryY=0;entryDx=0;entryDy=0;" edge="1" parent="1" source="iJGAhcAUCCFyRaBzRZ-4-1" target="iJGAhcAUCCFyRaBzRZ-4-2">
          <mxGeometry relative="1" as="geometry" />
        </mxCell>
        <mxCell id="iJGAhcAUCCFyRaBzRZ-4-1" value="start" style="ellipse;whiteSpace=wrap;html=1;" vertex="1" parent="1">
          <mxGeometry x="340" y="20" width="120" height="80" as="geometry" />
        </mxCell>
        <mxCell id="iJGAhcAUCCFyRaBzRZ-4-9" style="edgeStyle=orthogonalEdgeStyle;rounded=0;orthogonalLoop=1;jettySize=auto;html=1;entryX=0.5;entryY=0;entryDx=0;entryDy=0;" edge="1" parent="1" source="iJGAhcAUCCFyRaBzRZ-4-2" target="iJGAhcAUCCFyRaBzRZ-4-5">
          <mxGeometry relative="1" as="geometry" />
        </mxCell>
        <mxCell id="iJGAhcAUCCFyRaBzRZ-4-2" value="input n and m" style="shape=parallelogram;perimeter=parallelogramPerimeter;whiteSpace=wrap;html=1;fixedSize=1;" vertex="1" parent="1">
          <mxGeometry x="340" y="150" width="120" height="60" as="geometry" />
        </mxCell>
        <mxCell id="iJGAhcAUCCFyRaBzRZ-4-10" style="edgeStyle=orthogonalEdgeStyle;rounded=0;orthogonalLoop=1;jettySize=auto;html=1;entryX=0.5;entryY=0;entryDx=0;entryDy=0;" edge="1" parent="1" source="iJGAhcAUCCFyRaBzRZ-4-5" target="iJGAhcAUCCFyRaBzRZ-4-6">
          <mxGeometry relative="1" as="geometry" />
        </mxCell>
        <mxCell id="iJGAhcAUCCFyRaBzRZ-4-5" value="first = ++n * ++m" style="rounded=1;whiteSpace=wrap;html=1;" vertex="1" parent="1">
          <mxGeometry x="340" y="260" width="120" height="60" as="geometry" />
        </mxCell>
        <mxCell id="iJGAhcAUCCFyRaBzRZ-4-11" style="edgeStyle=orthogonalEdgeStyle;rounded=0;orthogonalLoop=1;jettySize=auto;html=1;entryX=0.5;entryY=0;entryDx=0;entryDy=0;" edge="1" parent="1" source="iJGAhcAUCCFyRaBzRZ-4-6" target="iJGAhcAUCCFyRaBzRZ-4-7">
          <mxGeometry relative="1" as="geometry" />
        </mxCell>
        <mxCell id="iJGAhcAUCCFyRaBzRZ-4-6" value="second = m++ &amp;lt; n" style="rounded=1;whiteSpace=wrap;html=1;" vertex="1" parent="1">
          <mxGeometry x="340" y="370" width="120" height="60" as="geometry" />
        </mxCell>
        <mxCell id="iJGAhcAUCCFyRaBzRZ-4-13" style="edgeStyle=orthogonalEdgeStyle;rounded=0;orthogonalLoop=1;jettySize=auto;html=1;entryX=0.5;entryY=0;entryDx=0;entryDy=0;" edge="1" parent="1" source="iJGAhcAUCCFyRaBzRZ-4-7" target="iJGAhcAUCCFyRaBzRZ-4-12">
          <mxGeometry relative="1" as="geometry" />
        </mxCell>
        <mxCell id="iJGAhcAUCCFyRaBzRZ-4-7" value="third = n++ &amp;gt; m" style="rounded=1;whiteSpace=wrap;html=1;" vertex="1" parent="1">
          <mxGeometry x="340" y="480" width="120" height="60" as="geometry" />
        </mxCell>
        <mxCell id="iJGAhcAUCCFyRaBzRZ-4-15" style="edgeStyle=orthogonalEdgeStyle;rounded=0;orthogonalLoop=1;jettySize=auto;html=1;entryX=0.5;entryY=0;entryDx=0;entryDy=0;" edge="1" parent="1" source="iJGAhcAUCCFyRaBzRZ-4-12" target="iJGAhcAUCCFyRaBzRZ-4-14">
          <mxGeometry relative="1" as="geometry" />
        </mxCell>
        <mxCell id="iJGAhcAUCCFyRaBzRZ-4-12" value="output all these actions" style="shape=parallelogram;perimeter=parallelogramPerimeter;whiteSpace=wrap;html=1;fixedSize=1;" vertex="1" parent="1">
          <mxGeometry x="340" y="590" width="120" height="60" as="geometry" />
        </mxCell>
        <mxCell id="iJGAhcAUCCFyRaBzRZ-4-14" value="end" style="ellipse;whiteSpace=wrap;html=1;" vertex="1" parent="1">
          <mxGeometry x="340" y="700" width="120" height="80" as="geometry" />
        </mxCell>
      </root>
    </mxGraphModel>
  </diagram>
</mxfile>
